<svg width="590" height="29" viewBox="0 0 590 29" fill="none" xmlns="http://www.w3.org/2000/svg">
<g clip-path="url(#clip0_1_85)">
<path fill-rule="evenodd" clip-rule="evenodd" d="M-211.898 4.91415C-210.635 5.06098 -209.383 5.20668 -207.755 5.86143C-206.305 6.5084 -204.997 6.08575 -203.481 5.59583C-202.992 5.43769 -202.48 5.27253 -201.937 5.13408C-201.586 5.01952 -201.282 4.89719 -200.983 4.77716L-200.982 4.77701C-200.485 4.57778 -200.004 4.38491 -199.363 4.24448C-197.188 4.06902 -194.992 3.83642 -192.785 3.60249C-188.214 3.11787 -183.588 2.62754 -178.961 2.62754C-178.961 2.62754 -178.786 2.76229 -178.61 2.76229C-174.214 4.37924 -169.64 5.18771 -164.716 4.64873C-164.312 4.85454 -163.921 5.05162 -163.538 5.24441L-163.534 5.24639L-163.533 5.24701L-163.531 5.24847C-162.412 5.81148 -161.365 6.33819 -160.319 6.9394C-158.56 7.07415 -156.802 7.07415 -155.043 6.66991C-153.108 6.26568 -151.174 6.26568 -149.414 6.9394C-146.979 8.05939 -144.373 7.23996 -142.008 6.49614C-140.959 6.16609 -139.958 5.85093 -139.038 5.72669C-137.712 5.87192 -136.947 6.29104 -136.22 6.68888C-135.599 7.02929 -135.006 7.35412 -134.113 7.47838C-132.49 6.17236 -130.23 6.27285 -127.92 6.37552C-125.226 6.4953 -122.466 6.61804 -120.571 4.51398C-119.168 5.30258 -118.212 4.71805 -117.202 4.09975C-116.313 3.55593 -115.382 2.98599 -114.065 3.30127C-110.194 7.03516 -106.675 5.3092 -103.029 3.52161C-102.202 3.11589 -101.368 2.707 -100.523 2.35805C-98.4122 3.03178 -96.1249 3.03178 -93.8388 2.49279C-91.1012 4.66492 -87.767 4.54712 -84.4681 4.43061C-81.8331 4.33751 -79.2205 4.24525 -76.9556 5.32245C-75.4182 5.10833 -74.1024 4.55392 -72.822 4.01411C-70.8802 3.19515 -69.0162 2.40975 -66.5792 2.89704C-64.1163 0.741101 -60.9506 0.606355 -57.9607 1.41483C-57.5493 1.25697 -57.1967 1.19157 -56.9055 1.13741C-56.6992 1.0991 -56.5235 1.0664 -56.3785 1.0106C-52.6847 -0.202119 -49.3434 -0.606356 -46.0009 1.41483C-44.7701 2.2233 -43.0121 2.08856 -41.4287 1.68432C-39.8453 1.28009 -38.2632 1.28009 -36.6797 1.54958C-34.9101 1.76371 -33.0909 1.94004 -31.2481 2.11861L-31.2469 2.11871C-29.6116 2.27721 -27.9575 2.43749 -26.3033 2.62754C-24.2637 4.3643 -21.6393 5.20564 -18.9948 6.05323V6.05335C-17.5363 6.52091 -16.0709 6.99039 -14.6961 7.61313C-13.299 7.4602 -11.9161 7.23133 -10.539 7.00348C-7.06213 6.42829 -3.62524 5.85958 -0.098877 6.53517L-0.0953369 6.53413C1.8382 5.86075 3.77173 5.18743 5.17828 4.64873C5.6416 4.24291 5.85504 3.74162 6.06488 3.25267V3.25258C6.41034 2.44277 6.74164 1.66687 8.16705 1.41483C11.137 3.23465 14.4818 2.94232 17.8856 2.64486C18.514 2.58992 19.1448 2.53481 19.7755 2.49279C21.0712 2.44962 22.3492 2.32346 23.6155 2.19851C26.3 1.93346 28.9292 1.67386 31.5584 2.2233C36.3074 3.16652 41.0565 3.97499 46.1568 4.10974C49.498 4.24448 52.8394 4.78347 55.6536 6.40042C59.4783 8.62718 62.1039 8.10168 66.0795 7.30643C66.6749 7.18736 67.301 7.06223 67.9648 6.9394C70.9547 6.40042 75.8794 5.18771 78.8694 4.24448C79.7477 5.05296 80.6272 5.72669 82.3863 5.86143C83.2658 5.59194 84.321 5.32245 85.5519 5.05296C86.6177 5.93271 87.9901 6.43149 89.3294 6.9183C90.8621 7.47536 92.3524 8.01673 93.2909 9.09531C95.0771 8.96289 96.8255 9.09077 98.5056 9.21366C101.953 9.46587 105.11 9.69687 107.712 7.61313C108.768 6.66991 110.878 6.53517 112.637 6.53517C112.979 6.53517 113.334 6.55597 113.699 6.57734C114.65 6.63291 115.666 6.69235 116.681 6.40042C117.275 6.28672 117.713 5.98112 118.177 5.65569C118.815 5.20979 119.507 4.72662 120.726 4.64873C126.079 8.33914 132.55 7.6622 139.367 6.94913C141.511 6.72492 143.688 6.49712 145.877 6.40042C146.585 6.52113 147.154 6.80406 147.706 7.07966C148.388 7.41933 149.048 7.74788 149.922 7.74788C151.313 7.68863 152.57 7.26464 153.854 6.83103C155.49 6.27854 157.174 5.71044 159.243 5.86143C161.155 7.69303 164.079 7.42223 166.967 7.15476L166.968 7.15461C167.266 7.12698 167.564 7.09938 167.86 7.07415C170.5 6.86123 173.113 7.00578 175.731 7.15062C179.74 7.37242 183.76 7.59487 187.91 6.53517C190.748 7.9268 193.367 7.185 196.096 6.41167C197.595 5.98696 199.127 5.55274 200.748 5.4572C201.981 5.86143 203.387 6.26568 204.794 6.66991C207.257 5.05296 210.07 4.91822 212.708 5.18771C213.427 5.00397 213.965 4.68102 214.504 4.35807C215.149 3.97054 215.794 3.58301 216.753 3.43601C218.695 4.21532 220.685 3.8399 222.776 3.44568C224.661 3.0901 226.628 2.71923 228.713 3.16653C228.975 2.8848 229.222 2.6151 229.458 2.35743L229.459 2.35624C230.012 1.75167 230.506 1.2133 230.999 0.741107C233.371 1.6835 235.656 1.28079 238.137 0.843314C240.623 0.405068 243.308 -0.0680734 246.476 0.741107C246.707 0.847145 246.937 1.01808 247.2 1.21258V1.21271V1.21282C247.938 1.75976 248.927 2.49279 250.872 2.49279C255.221 0.232233 259.98 1.22833 264.788 2.2345L264.792 2.23512C265.427 2.36827 266.064 2.50159 266.702 2.62754C267.01 2.86337 267.284 3.14132 267.567 3.42769V3.42804L267.568 3.4285V3.4286C268.417 4.28733 269.34 5.22143 271.45 5.32245C271.923 5.09552 272.408 4.8533 272.904 4.6048L272.907 4.60332C275.358 3.3767 278.112 1.9976 281.475 1.54958H282.178C284.289 3.43601 286.751 3.57076 289.565 2.62754C291.5 2.08856 293.786 2.2233 295.545 3.16653C297.457 3.96548 299.368 3.8433 301.45 3.71026L301.525 3.7055C303.03 3.55499 304.512 3.34843 305.997 3.14148C308.5 2.79262 311.011 2.44262 313.66 2.35805C316.571 2.19875 319.236 2.83985 321.873 3.47425C323.697 3.91307 325.508 4.34869 327.378 4.51398C328.802 4.75652 330.263 4.75349 331.726 4.75046C333.516 4.74676 335.31 4.74304 337.05 5.18771C337.904 5.44921 338.509 5.26665 339.106 5.08632C339.741 4.89496 340.367 4.70611 341.272 5.05296H344.965C346.081 5.77671 347.198 5.53664 348.273 5.30538C349.4 5.06302 350.483 4.83034 351.473 5.72669C352.351 6.53517 353.583 7.07415 354.814 7.20889C360.442 7.74788 366.07 6.9394 371.522 3.84025C373.33 4.60222 374.673 4.75882 376.007 4.91415C377.266 5.06098 378.516 5.20668 380.14 5.86143C381.606 6.51646 382.925 6.10502 384.461 5.62577C384.75 5.53576 385.046 5.44335 385.353 5.35517V5.3538C385.933 5.18484 386.377 4.9987 386.813 4.82046C387.344 4.60086 387.839 4.39324 388.523 4.24448C390.704 4.06902 392.909 3.83643 395.114 3.6025C399.7 3.11788 404.333 2.62754 408.967 2.62754C408.967 2.62754 409.144 2.76229 409.321 2.76229C413.73 4.37924 418.316 5.18771 423.245 4.64873C423.657 4.85502 424.046 5.05253 424.435 5.24576C425.555 5.8098 426.605 6.33722 427.654 6.9394C429.422 7.07415 432.476 7.07415 434.245 6.66991C436.178 6.26568 438.124 6.26568 439.88 6.9394C442.321 8.05939 444.938 7.23997 447.308 6.49614C448.357 6.1661 449.359 5.85093 450.279 5.72669C451.611 5.87192 452.378 6.29104 453.109 6.68888C453.722 7.02929 454.323 7.35412 455.219 7.47838C456.846 6.17236 459.11 6.27285 461.421 6.37552C464.12 6.4953 466.891 6.61804 468.789 4.51398C470.192 5.30257 471.147 4.71805 472.161 4.09977C473.057 3.55594 473.989 2.98599 475.309 3.30127C479.188 7.03517 482.713 5.30919 486.368 3.5216C487.194 3.11589 488.031 2.707 488.88 2.35805C491.002 3.03178 493.289 3.03178 495.576 2.49279C498.323 4.66492 501.66 4.54712 504.973 4.43061C507.614 4.33751 510.231 4.24525 512.495 5.32245C514.039 5.10833 515.36 4.55393 516.645 4.01413C518.59 3.19516 520.453 2.40975 522.894 2.89704C525.37 0.741101 528.541 0.606355 531.536 1.41483C531.948 1.25697 532.302 1.19158 532.597 1.13742C532.797 1.09911 532.974 1.06641 533.127 1.0106C536.83 -0.202119 540.178 -0.606356 543.526 1.41483C544.752 2.2233 546.521 2.08856 548.101 1.68432C549.692 1.28009 551.272 1.28009 552.864 1.54958C554.632 1.76372 556.46 1.94005 558.311 2.11863C559.95 2.27715 561.6 2.43745 563.263 2.62754C565.302 4.3643 567.943 5.20564 570.584 6.05322C572.046 6.52082 573.52 6.99032 574.899 7.61313C576.291 7.4602 577.682 7.23134 579.061 7.00349C582.551 6.4283 585.994 5.85957 589.531 6.53517C591.464 5.86143 593.398 5.18771 594.813 4.64873C595.272 4.24291 595.496 3.7416 595.697 3.25264C596.051 2.44281 596.381 1.66688 597.807 1.41483C600.79 3.23465 604.139 2.94232 607.546 2.64486C608.183 2.58993 608.807 2.53481 609.444 2.49279C610.741 2.44962 612.026 2.32345 613.288 2.1985C615.976 1.93346 618.617 1.67386 621.258 2.2233C626.009 3.16652 630.772 3.97499 635.877 4.10974C639.226 4.24448 642.574 4.78347 645.404 6.40042C649.235 8.62718 651.865 8.10168 655.85 7.30642C656.451 7.18735 657.076 7.06223 657.736 6.9394C660.731 6.40042 665.671 5.18771 668.665 4.24448C669.55 5.05296 670.434 5.72669 672.19 5.86143C673.075 5.59194 674.124 5.32245 675.362 5.05296C676.435 5.93272 677.802 6.43149 679.147 6.91831C680.691 7.47536 682.177 8.01674 683.12 9.09531C684.912 8.96289 686.657 9.09077 688.343 9.21366C691.797 9.46587 694.969 9.69687 697.574 7.61313C698.635 6.66991 700.746 6.53517 702.503 6.53517C702.844 6.53517 703.21 6.55597 703.575 6.57734C704.53 6.63291 705.544 6.69235 706.558 6.40042C707.16 6.28672 707.596 5.98115 708.056 5.65572C708.704 5.20981 709.388 4.72662 710.614 4.64873C715.979 8.33914 722.463 7.6622 729.301 6.94913C731.447 6.72492 733.628 6.49712 735.821 6.40042C736.528 6.52113 737.094 6.80405 737.649 7.07964C738.332 7.41932 738.993 7.74788 739.877 7.74788C741.268 7.68863 742.53 7.26464 743.815 6.83104C745.453 6.27854 747.139 5.71044 749.214 5.86143C751.136 7.69303 754.06 7.42223 756.961 7.15476C757.255 7.12708 757.55 7.09943 757.857 7.07415C760.498 6.86123 763.115 7.00578 765.744 7.15061C769.753 7.37242 773.785 7.59487 777.947 6.53517C780.788 7.92681 783.417 7.18499 786.153 6.41167C787.65 5.98696 789.183 5.55274 790.81 5.4572C792.048 5.86143 793.463 6.26568 794.865 6.66991C797.33 5.05296 800.159 4.91822 802.8 5.18771C803.519 5.00397 804.062 4.68103 804.592 4.35809C805.241 3.97055 805.889 3.58301 806.856 3.43601C808.801 4.21532 810.794 3.83991 812.892 3.44568C814.779 3.0901 816.748 2.71922 818.834 3.16653C819.106 2.88492 819.353 2.61534 819.589 2.35775C820.143 1.75258 820.638 1.21369 821.134 0.741107C823.503 1.6835 825.802 1.28079 828.278 0.843317C830.778 0.40507 833.466 -0.068075 836.637 0.741107C836.873 0.847184 837.097 1.01821 837.368 1.2128C838.111 1.75973 839.101 2.49279 841.047 2.49279C845.409 0.23222 850.172 1.22834 854.995 2.23452C855.631 2.36787 856.268 2.50139 856.904 2.62754C857.223 2.8636 857.494 3.14186 857.777 3.42852C858.626 4.28728 859.557 5.22143 861.667 5.32245C862.151 5.09503 862.634 4.85224 863.13 4.60318C865.582 3.37659 868.341 1.99758 871.713 1.54958H872.42C874.53 3.43601 877.006 3.57076 879.824 2.62754C881.758 2.08856 884.057 2.2233 885.814 3.16653C887.735 3.96547 889.645 3.8433 891.732 3.71027L891.815 3.7055C893.324 3.55499 894.809 3.34843 896.295 3.14148C898.794 2.79262 901.317 2.44262 903.97 2.35805C906.894 2.19875 909.559 2.83985 912.2 3.47425C914.027 3.91307 915.843 4.34869 917.717 4.51398C919.144 4.75652 920.606 4.75349 922.079 4.75046C923.872 4.74676 925.664 4.74304 927.409 5.18771C928.269 5.44921 928.87 5.26665 929.472 5.08632C930.109 4.89496 930.733 4.70611 931.641 5.05296H935.343C936.463 5.77671 937.583 5.53664 938.656 5.30538C939.788 5.06302 940.873 4.83033 941.863 5.72669C942.747 6.53517 943.985 7.07415 945.212 7.20889C950.859 7.74788 956.495 6.9394 961.965 3.84025C963.769 4.60222 965.125 4.75882 966.457 4.91415C967.719 5.06098 968.968 5.20668 970.595 5.86143C972.046 6.50839 973.354 6.08576 974.875 5.59584C975.359 5.4377 975.877 5.27255 976.42 5.13411C976.762 5.01948 977.068 4.89708 977.375 4.777C977.87 4.57777 978.353 4.3849 978.99 4.24448C981.171 4.06902 983.364 3.83642 985.569 3.60249C990.143 3.11787 994.765 2.62754 999.387 2.62754C999.387 2.62754 999.563 2.76229 999.74 2.76229C1004.14 4.37924 1008.71 5.18771 1013.64 4.64873C1014.03 4.85216 1014.42 5.04707 1014.8 5.23773L1014.82 5.24639V5.24701C1015.94 5.81057 1016.99 6.33766 1018.04 6.9394C1019.8 7.07415 1021.55 7.07415 1023.31 6.66991C1025.24 6.26568 1027.18 6.26568 1028.93 6.9394C1031.37 8.05939 1033.98 7.23996 1036.35 6.49614C1037.4 6.16609 1038.4 5.85093 1039.32 5.72669C1040.64 5.87192 1041.41 6.29104 1042.14 6.68888C1042.75 7.02929 1043.35 7.35412 1044.24 7.47838C1045.86 6.17236 1048.13 6.27285 1050.44 6.37552C1053.13 6.4953 1055.88 6.61804 1057.78 4.51398C1059.19 5.30257 1060.14 4.71805 1061.15 4.09976C1062.04 3.55593 1062.97 2.98599 1064.29 3.30127C1068.16 7.03515 1071.68 5.30921 1075.33 3.52163C1076.15 3.11591 1076.99 2.707 1077.83 2.35805C1079.94 3.03178 1082.22 3.03178 1084.51 2.49279C1087.25 4.66492 1090.58 4.54712 1093.88 4.43061C1096.52 4.33751 1099.13 4.24525 1101.39 5.32245C1102.94 5.10833 1104.25 4.55394 1105.53 4.01413C1107.48 3.19516 1109.34 2.40975 1111.77 2.89704C1114.23 0.741101 1117.4 0.606355 1120.39 1.41483C1120.8 1.25697 1121.15 1.19157 1121.45 1.13741C1121.65 1.0991 1121.83 1.0664 1121.98 1.0106C1125.67 -0.202119 1129.01 -0.606356 1132.35 1.41483C1133.58 2.2233 1135.34 2.08856 1136.93 1.68432C1138.51 1.28009 1140.09 1.28009 1141.67 1.54958C1143.45 1.76372 1145.26 1.94005 1147.1 2.11862C1148.74 2.27714 1150.39 2.43744 1152.04 2.62754C1154.09 4.36431 1156.71 5.20565 1159.35 6.05324C1160.82 6.52084 1162.28 6.99034 1163.66 7.61313C1165.06 7.46022 1166.44 7.23141 1167.82 7.0036V7.00348C1171.28 6.4283 1174.73 5.85957 1178.25 6.53517L1178.26 6.5331C1180.2 5.86006 1182.12 5.18716 1183.53 4.64873C1183.99 4.24291 1184.21 3.7416 1184.42 3.25265C1184.76 2.44281 1185.09 1.66688 1186.52 1.41483C1189.49 3.23466 1192.84 2.94231 1196.23 2.64485C1196.87 2.58992 1197.49 2.53481 1198.13 2.49279C1199.43 2.44962 1200.7 2.32346 1201.96 2.19851C1204.65 1.93346 1207.28 1.67386 1209.91 2.2233C1214.66 3.16652 1219.41 3.97499 1224.5 4.10974C1227.85 4.24448 1231.19 4.78347 1234.01 6.40042C1237.83 8.62718 1240.46 8.10168 1244.43 7.30642C1245.03 7.18735 1245.66 7.06223 1246.32 6.9394C1249.31 6.40042 1254.23 5.18771 1257.22 4.24448C1258.11 5.05296 1258.98 5.72669 1260.74 5.86143C1261.62 5.59194 1262.67 5.32245 1263.91 5.05296C1264.97 5.93272 1266.35 6.43149 1267.68 6.91831C1269.21 7.47536 1270.71 8.01674 1271.64 9.09531C1273.43 8.96289 1275.18 9.09077 1276.85 9.21366C1280.31 9.46587 1283.47 9.69687 1286.06 7.61313C1287.12 6.66991 1289.23 6.53517 1290.99 6.53517C1291.33 6.53517 1291.68 6.55597 1292.05 6.57734C1293 6.63291 1294.02 6.69235 1295.03 6.40042C1295.63 6.28672 1296.07 5.98112 1296.53 5.65569C1297.17 5.20979 1297.86 4.72662 1299.08 4.64873C1304.43 8.33913 1310.9 7.6622 1317.72 6.94913C1319.86 6.72492 1322.04 6.49712 1324.22 6.40042C1324.94 6.52113 1325.51 6.80405 1326.06 7.07964C1326.74 7.41932 1327.4 7.74788 1328.27 7.74788C1329.67 7.68863 1330.92 7.26464 1332.21 6.83103C1333.85 6.27854 1335.53 5.71044 1337.59 5.86143C1339.5 7.69302 1342.43 7.42223 1345.32 7.15476V7.1546C1345.62 7.12697 1345.92 7.09937 1346.21 7.07415C1348.85 6.86123 1351.47 7.00578 1354.09 7.15061C1358.1 7.37242 1362.12 7.59487 1366.27 6.53517C1369.1 7.9268 1371.71 7.185 1374.45 6.41168V6.4115C1375.95 5.98684 1377.48 5.55272 1379.11 5.4572C1380.33 5.86143 1381.74 6.26568 1383.15 6.66991C1385.6 5.05296 1388.42 4.91822 1391.06 5.18771C1391.78 5.00397 1392.32 4.68102 1392.85 4.35807C1393.5 3.97054 1394.15 3.58301 1395.11 3.43601C1397.05 4.21532 1399.04 3.83991 1401.13 3.44568C1403.02 3.0901 1404.99 2.71923 1407.06 3.16653C1407.33 2.88505 1407.58 2.61556 1407.82 2.35809V2.35407C1408.37 1.75039 1408.86 1.21273 1409.35 0.741107C1411.72 1.6835 1414.01 1.28079 1416.49 0.843314C1418.98 0.405068 1421.66 -0.0680734 1424.83 0.741107C1425.06 0.847159 1425.29 1.01813 1425.55 1.21265V1.21282C1426.29 1.75976 1427.28 2.49279 1429.23 2.49279C1433.58 0.23222 1438.33 1.22834 1443.14 2.23452C1443.78 2.36787 1444.41 2.50139 1445.05 2.62754C1445.37 2.86347 1445.64 3.14154 1445.92 3.42804V3.42848V3.42869C1446.77 4.2874 1447.69 5.22144 1449.8 5.32245C1450.27 5.09634 1450.75 4.85506 1451.25 4.60751L1451.26 4.60344C1453.71 3.37679 1456.46 1.99762 1459.83 1.54958H1460.53C1462.64 3.43601 1465.1 3.57076 1467.92 2.62754C1469.85 2.08856 1472.14 2.2233 1473.9 3.16653C1475.81 3.96549 1477.72 3.84329 1479.81 3.71026L1479.88 3.7055C1481.39 3.55499 1482.87 3.34844 1484.34 3.14149C1486.86 2.79262 1489.37 2.44262 1492.01 2.35805C1494.92 2.19875 1497.58 2.83984 1500.23 3.47425C1502.05 3.91307 1503.86 4.34869 1505.73 4.51398C1507.16 4.75652 1508.62 4.75349 1510.08 4.75046C1511.86 4.74676 1513.67 4.74304 1515.4 5.18771C1516.26 5.44921 1516.86 5.26665 1517.46 5.08632C1518.09 4.89496 1518.72 4.70611 1519.62 5.05296H1523.32C1524.43 5.77671 1525.55 5.53664 1526.62 5.30538C1527.76 5.06302 1528.84 4.83034 1529.83 5.72669C1530.7 6.53517 1531.94 7.07415 1533.17 7.20889C1538.79 7.74788 1544.43 6.9394 1549.87 3.84025C1551.68 4.60222 1553.02 4.75882 1554.35 4.91415C1555.62 5.06098 1556.86 5.20668 1558.49 5.86143C1559.94 6.5084 1561.25 6.08575 1562.76 5.59582V5.59563C1563.46 5.37133 1564.19 5.13297 1565 4.9767V28.8644L977.115 28.8646H385.353L-201.234 28.8644V28.8646H-793L-793 4.97666C-792.352 4.89422 -791.771 4.73945 -791.135 4.56999H-791.135C-790.732 4.46249 -790.306 4.34908 -789.827 4.24448C-787.646 4.06902 -785.447 3.83642 -783.235 3.6025C-778.653 3.11788 -774.017 2.62754 -769.381 2.62754C-769.381 2.62754 -769.204 2.76229 -769.028 2.76229C-764.622 4.37924 -760.039 5.18771 -755.104 4.64873C-754.699 4.85503 -754.306 5.05256 -753.921 5.24579L-753.92 5.2463L-753.92 5.24637C-752.797 5.81017 -751.747 6.33743 -750.697 6.9394C-748.935 7.07415 -745.874 7.07415 -744.112 6.66991C-742.173 6.26568 -740.234 6.26568 -738.471 6.9394C-736.03 8.05939 -733.419 7.23997 -731.049 6.49614C-729.997 6.1661 -728.993 5.85093 -728.072 5.72669C-726.742 5.87192 -725.976 6.29104 -725.248 6.68888C-724.625 7.02929 -724.031 7.35412 -723.137 7.47838C-721.51 6.17236 -719.245 6.27285 -716.93 6.37552C-714.23 6.4953 -711.463 6.61804 -709.565 4.51398C-708.158 5.30257 -707.201 4.71805 -706.188 4.09976C-705.297 3.55593 -704.363 2.98599 -703.043 3.30127C-699.165 7.03517 -695.637 5.30919 -691.984 3.52161C-691.155 3.11589 -690.319 2.707 -689.472 2.35805C-687.357 3.03178 -685.065 3.03178 -682.774 2.49279C-680.03 4.66492 -676.688 4.54712 -673.382 4.43061C-670.741 4.33751 -668.123 4.24525 -665.853 5.32245C-664.312 5.10833 -662.994 4.55392 -661.711 4.01412C-659.764 3.19515 -657.897 2.40975 -655.453 2.89704C-652.985 0.741101 -649.813 0.606355 -646.817 1.41483C-646.404 1.25697 -646.052 1.19157 -645.759 1.13741C-645.553 1.0991 -645.376 1.0664 -645.23 1.0106C-641.529 -0.202119 -638.18 -0.606356 -634.831 1.41483C-633.597 2.2233 -631.834 2.08856 -630.248 1.68432C-628.663 1.28009 -627.076 1.28009 -625.489 1.54958C-623.716 1.76371 -621.892 1.94003 -620.045 2.1186V2.11862C-618.405 2.27715 -616.748 2.43745 -615.09 2.62754C-613.046 4.3643 -610.415 5.20564 -607.765 6.05323C-606.303 6.52083 -604.835 6.99033 -603.457 7.61313C-602.056 7.4602 -600.671 7.23133 -599.29 7.00348C-595.808 6.42829 -592.363 5.85958 -588.828 6.53517C-586.888 5.86143 -584.95 5.18771 -583.54 4.64873C-583.076 4.24291 -582.861 3.7416 -582.651 3.25265C-582.304 2.44282 -581.972 1.66688 -580.543 1.41483C-577.567 3.23466 -574.215 2.94232 -570.804 2.64485C-570.174 2.58992 -569.542 2.53481 -568.91 2.49279C-567.612 2.44962 -566.33 2.32345 -565.062 2.1985C-562.371 1.93346 -559.736 1.67386 -557.101 2.2233C-552.341 3.16652 -547.583 3.97499 -542.472 4.10974C-539.122 4.24448 -535.774 4.78347 -532.954 6.40042C-529.121 8.62718 -526.488 8.10168 -522.504 7.30642C-521.908 7.18735 -521.281 7.06223 -520.616 6.9394C-517.619 6.40042 -512.683 5.18771 -509.687 4.24448C-508.806 5.05296 -507.925 5.72669 -506.162 5.86143C-505.28 5.59194 -504.223 5.32245 -502.99 5.05296C-501.92 5.93272 -500.546 6.4315 -499.203 6.91831C-497.668 7.47537 -496.175 8.01674 -495.234 9.09531C-493.443 8.96289 -491.691 9.09077 -490.008 9.21366C-486.553 9.46587 -483.388 9.69687 -480.781 7.61313C-479.723 6.66991 -477.608 6.53517 -475.845 6.53517C-475.502 6.53517 -475.146 6.55597 -474.78 6.57734C-473.828 6.63291 -472.81 6.69235 -471.791 6.40042C-471.197 6.28672 -470.758 5.98112 -470.292 5.65569C-469.653 5.20979 -468.96 4.72662 -467.737 4.64873C-462.374 8.33914 -455.887 7.6622 -449.056 6.94913C-446.908 6.72492 -444.726 6.49712 -442.533 6.40042C-441.822 6.52113 -441.254 6.80405 -440.698 7.07964C-440.016 7.41932 -439.354 7.74788 -438.478 7.74788C-437.083 7.68863 -435.825 7.26464 -434.538 6.83103C-432.897 6.27854 -431.211 5.71044 -429.137 5.86143C-427.22 7.69303 -424.29 7.42222 -421.397 7.15476L-421.396 7.15472C-421.096 7.12705 -420.798 7.09942 -420.501 7.07415C-417.854 6.86123 -415.237 7.00578 -412.612 7.15062C-408.595 7.37242 -404.565 7.59487 -400.407 6.53517C-397.562 7.9268 -394.939 7.185 -392.202 6.41167C-390.7 5.98696 -389.164 5.55274 -387.54 5.4572C-386.306 5.86135 -384.896 6.26551 -383.486 6.66967V6.66991C-381.018 5.05296 -378.198 4.91822 -375.554 5.18771C-374.833 5.00397 -374.295 4.68102 -373.755 4.35807C-373.109 3.97054 -372.461 3.58301 -371.5 3.43601C-369.554 4.21532 -367.559 3.83991 -365.464 3.44568C-363.575 3.0901 -361.604 2.71922 -359.515 3.16653C-359.252 2.88523 -359.004 2.61591 -358.768 2.35858C-358.213 1.75307 -357.718 1.2139 -357.223 0.741107C-354.846 1.6835 -352.556 1.28079 -350.07 0.843315C-347.577 0.405068 -344.888 -0.0680737 -341.713 0.741107C-341.481 0.847191 -341.25 1.01823 -340.987 1.21283C-340.247 1.75977 -339.256 2.49279 -337.306 2.49279C-332.948 0.232233 -328.178 1.22833 -323.361 2.2345C-322.722 2.36786 -322.083 2.50139 -321.442 2.62754C-321.134 2.8636 -320.858 3.14187 -320.575 3.42853C-319.723 4.28728 -318.798 5.22143 -316.684 5.32245C-316.208 5.09509 -315.722 4.85238 -315.223 4.60339C-312.767 3.37674 -310.006 1.99761 -306.637 1.54958H-305.932C-303.816 3.43601 -301.349 3.57076 -298.529 2.62754C-296.59 2.08856 -294.298 2.2233 -292.536 3.16653C-290.62 3.96548 -288.704 3.8433 -286.618 3.71027L-286.543 3.7055C-285.034 3.55499 -283.548 3.34844 -282.061 3.14149C-279.553 2.79262 -277.037 2.44262 -274.381 2.35805C-271.465 2.19875 -268.793 2.83985 -266.15 3.47425C-264.322 3.91308 -262.507 4.34869 -260.633 4.51398C-259.205 4.75652 -257.742 4.75349 -256.276 4.75046C-254.482 4.74676 -252.684 4.74304 -250.939 5.18771C-250.083 5.44921 -249.477 5.26665 -248.879 5.08632C-248.243 4.89496 -247.616 4.70611 -246.709 5.05296H-243.007C-241.888 5.77671 -240.769 5.53664 -239.692 5.30538C-238.562 5.06302 -237.478 4.83034 -236.486 5.72669C-235.604 6.53517 -234.371 7.07415 -233.137 7.20889C-227.496 7.74788 -221.856 6.9394 -216.392 3.84025C-214.58 4.60222 -213.234 4.75882 -211.898 4.91415Z" fill="#374F4C"/>
</g>
<defs>
<clipPath id="clip0_1_85">
<rect width="590" height="29" fill="white"/>
</clipPath>
</defs>
</svg>
