<svg width="422" height="378" viewBox="0 0 422 378" fill="none" xmlns="http://www.w3.org/2000/svg">
<g clip-path="url(#clip0_1_170)">
<path fill-rule="evenodd" clip-rule="evenodd" d="M7.62244 4.66424C6.7202 4.52542 5.82487 4.38767 4.66186 3.76862C3.15022 2.87685 1.00875 2.74945 0.000993481 3.38643L0.000124858 0H0L0.000471863 373.356C0.583093 373.21 1.11041 372.987 1.60652 372.779C2.68991 372.322 3.62452 371.927 4.66136 372.53C5.82438 373.142 6.71971 373.278 7.62195 373.415C8.57648 373.56 9.53873 373.705 10.8339 374.416C14.739 371.525 18.77 370.771 22.8011 371.273C23.6829 371.399 24.5647 371.902 25.1946 372.656C25.9036 373.493 26.6786 373.276 27.4859 373.05C28.2561 372.834 29.0557 372.609 29.8554 373.285H32.5007C33.1493 373.608 33.5975 373.432 34.0516 373.254C34.4796 373.086 34.9129 372.916 35.524 373.16C36.7712 373.574 38.0564 373.571 39.3379 373.567C40.3862 373.565 41.432 373.562 42.4524 373.788C43.7916 373.943 45.0887 374.348 46.3953 374.758C48.2843 375.35 50.1932 375.948 52.2782 375.8C54.1757 375.721 55.974 375.394 57.7666 375.069C58.8299 374.875 59.8912 374.683 60.97 374.542L61.0232 374.537C62.5142 374.414 63.8836 374.3 65.253 375.045C66.5127 375.926 68.1504 376.051 69.5361 375.549C71.5516 374.668 73.3151 374.793 74.8267 376.554H75.3306C77.7391 376.136 79.7123 374.849 81.4673 373.704C81.8236 373.472 82.1709 373.245 82.5109 373.034C84.022 373.128 84.6834 373.999 85.2914 374.801C85.4944 375.068 85.6915 375.328 85.9121 375.549C86.3691 375.666 86.8261 375.791 87.2826 375.915C90.7264 376.854 94.1348 377.783 97.2499 375.674C98.6427 375.674 99.3518 376.358 99.8799 376.868C100.068 377.05 100.234 377.21 100.399 377.308C102.668 378.063 104.59 377.622 106.371 377.213C108.149 376.805 109.785 376.429 111.484 377.308C111.837 376.867 112.191 376.364 112.589 375.799C112.757 375.559 112.934 375.307 113.122 375.045C114.615 375.463 116.024 375.117 117.374 374.785C118.871 374.416 120.297 374.066 121.688 374.793C122.375 374.657 122.837 374.295 123.3 373.933C123.685 373.632 124.07 373.331 124.585 373.16C126.475 373.411 128.49 373.285 130.253 371.776H130.255C131.262 372.153 132.27 372.531 133.151 372.908C134.312 372.819 135.41 372.414 136.483 372.017C138.438 371.296 140.314 370.603 142.347 371.902C145.319 370.913 148.198 371.121 151.07 371.327C152.945 371.462 154.816 371.597 156.708 371.399C156.92 371.376 157.134 371.35 157.348 371.324C159.416 371.074 161.51 370.822 162.88 372.53C164.362 372.672 165.567 372.141 166.739 371.626C167.66 371.221 168.559 370.825 169.557 370.77C170.182 370.77 170.654 371.077 171.143 371.393C171.539 371.651 171.946 371.915 172.453 372.027C174.021 371.937 175.581 371.725 177.116 371.515C181.998 370.851 186.634 370.218 190.467 373.662C191.341 373.59 191.835 373.139 192.293 372.723C192.626 372.418 192.939 372.134 193.364 372.027C194.092 371.756 194.82 371.81 195.5 371.863C195.762 371.882 196.017 371.902 196.261 371.902C197.521 371.902 199.033 371.776 199.789 370.896C201.652 368.951 203.914 369.167 206.383 369.403C207.586 369.517 208.839 369.637 210.118 369.513C210.79 370.519 211.857 371.025 212.955 371.544C213.914 371.999 214.897 372.464 215.661 373.285C216.543 373.034 217.299 372.782 217.928 372.53C219.188 372.656 219.818 373.285 220.448 374.039C222.589 373.16 226.116 372.027 228.258 371.525C228.734 371.41 229.182 371.293 229.608 371.182C232.455 370.44 234.337 369.949 237.076 372.027C239.091 373.537 241.485 374.039 243.878 374.165C247.531 374.291 250.933 375.045 254.334 375.926C256.217 376.438 258.1 376.196 260.024 375.949C260.93 375.832 261.846 375.714 262.774 375.674C263.225 375.635 263.677 375.583 264.128 375.532C266.565 375.254 268.962 374.982 271.088 376.68C272.109 376.444 272.347 375.721 272.594 374.965C272.744 374.509 272.897 374.041 273.229 373.662C274.236 373.16 275.62 372.532 277.005 371.904L277.008 371.902C279.535 372.532 281.997 372.001 284.486 371.465C285.473 371.252 286.463 371.039 287.464 370.896C288.449 371.477 289.498 371.916 290.543 372.351C292.437 373.143 294.317 373.928 295.778 375.549C296.963 375.725 298.148 375.875 299.319 376.023C300.639 376.19 301.942 376.354 303.21 376.554C304.344 376.805 305.478 376.805 306.611 376.428C307.745 376.051 309.005 375.926 309.887 376.68C312.28 378.566 314.673 378.189 317.319 377.057C317.423 377.005 317.549 376.974 317.697 376.939C317.905 376.888 318.157 376.827 318.453 376.68C320.594 377.434 322.861 377.308 324.625 375.296C326.372 375.752 327.706 375.019 329.097 374.254C330.015 373.751 330.956 373.233 332.057 373.034C333.68 374.038 335.551 373.953 337.438 373.865C339.801 373.757 342.19 373.647 344.15 375.674C345.788 375.171 347.426 375.171 348.937 375.8C349.543 375.474 350.14 375.092 350.733 374.713C353.344 373.046 355.865 371.435 358.637 374.919C359.58 375.213 360.248 374.682 360.884 374.174C361.608 373.597 362.293 373.052 363.298 373.788C364.655 371.824 366.632 371.939 368.562 372.051C370.215 372.147 371.835 372.241 372.998 371.022C373.636 371.137 374.061 371.441 374.507 371.758C375.027 372.13 375.575 372.521 376.525 372.656C377.182 372.54 377.901 372.246 378.652 371.938C380.346 371.244 382.211 370.479 383.957 371.525C385.217 372.153 386.602 372.153 387.988 371.776C389.248 371.399 390.507 371.399 391.767 371.525C392.518 372.086 393.268 372.579 394.07 373.105C394.345 373.285 394.627 373.47 394.916 373.662C398.444 373.16 401.719 373.914 404.868 375.423C404.994 375.423 405.12 375.549 405.12 375.549C408.433 375.549 411.747 375.091 415.021 374.638C416.602 374.42 418.174 374.203 419.733 374.039C420.074 373.942 420.379 373.835 420.667 373.736C421.122 373.578 421.538 373.433 422 373.356V4.6051C421.538 4.68306 421.122 4.82939 420.667 4.9896C420.379 5.09123 420.074 5.19845 419.733 5.29734C418.174 5.46324 416.602 5.68316 415.021 5.90432C411.747 6.36251 408.433 6.8261 405.12 6.8261C405.12 6.8261 404.994 6.69871 404.868 6.69871C401.719 5.16995 398.444 4.40557 394.916 4.91515C394.627 4.71993 394.346 4.53302 394.071 4.35017C393.268 3.81709 392.518 3.31857 391.767 2.74942C390.507 2.62202 389.248 2.62202 387.988 3.00421C386.602 3.3864 385.217 3.3864 383.957 2.74942C382.212 1.69052 380.346 2.46525 378.652 3.1685C377.901 3.48054 377.183 3.77852 376.525 3.89599C375.575 3.75868 375.027 3.36241 374.507 2.98628C374.061 2.66443 373.636 2.35732 372.998 2.23984C371.835 3.47463 370.215 3.37961 368.562 3.28254C366.632 3.1693 364.655 3.05324 363.298 5.04256C362.293 4.29698 361.608 4.84962 360.885 5.43419C360.248 5.94835 359.58 6.48721 358.637 6.18913C355.865 2.65889 353.344 4.29071 350.733 5.9808C350.14 6.36439 349.544 6.75098 348.937 7.0809C347.426 6.44392 345.788 6.44392 344.15 6.95351C342.19 4.89985 339.801 5.01123 337.439 5.12139C335.551 5.2094 333.68 5.29664 332.057 4.27818C330.957 4.48063 330.015 5.00479 329.097 5.51516C327.706 6.28946 326.372 7.03203 324.625 6.57132C322.861 8.60967 320.594 8.73706 318.453 7.97268C318.157 8.12193 317.905 8.18375 317.697 8.23497C317.549 8.27119 317.423 8.3021 317.319 8.35487C314.673 9.50149 312.28 9.88368 309.887 7.97268C309.005 7.2083 307.745 7.33569 306.611 7.71789C305.478 8.10007 304.344 8.10007 303.21 7.84529C301.942 7.64282 300.639 7.47611 299.319 7.30728C298.148 7.1574 296.963 7.00585 295.778 6.82611C294.317 5.18407 292.437 4.38862 290.543 3.58727C289.498 3.14516 288.449 2.70128 287.464 2.11244C286.463 2.25703 285.473 2.47341 284.486 2.68884C281.997 3.23265 279.535 3.77036 277.008 3.13162C275.623 3.76859 274.237 4.40558 273.229 4.91516C272.897 5.29885 272.744 5.77282 272.595 6.23511C272.347 7.00076 272.109 7.73438 271.088 7.97268C268.962 6.25211 266.565 6.52851 264.128 6.80974C263.677 6.86169 263.225 6.91379 262.774 6.95351C261.846 6.99433 260.93 7.11362 260.024 7.23175C258.101 7.48234 256.218 7.72778 254.334 7.20831C250.933 6.31653 247.531 5.55215 243.878 5.42476C241.485 5.29736 239.091 4.78777 237.076 3.25901C234.337 1.1537 232.455 1.65054 229.608 2.40242C229.182 2.515 228.734 2.6333 228.258 2.74943C226.116 3.25902 222.589 4.40559 220.448 5.29736C219.818 4.53298 219.188 3.896 217.928 3.7686C217.299 4.0234 216.543 4.27819 215.661 4.53298C214.898 3.70122 213.914 3.22964 212.955 2.76937C211.857 2.2427 210.791 1.73085 210.118 0.711087C208.839 0.836304 207.587 0.715371 206.383 0.599188C203.914 0.360755 201.652 0.142331 199.789 2.11245C199.033 3.00422 197.521 3.13162 196.261 3.13163C196.017 3.13163 195.762 3.11195 195.5 3.09174C194.82 3.03921 194.092 2.98302 193.365 3.25902C192.939 3.36652 192.626 3.65545 192.293 3.96313C191.836 4.38472 191.341 4.84153 190.468 4.91517C186.634 1.42604 181.999 2.06606 177.116 2.74023C175.581 2.95223 174.021 3.16759 172.454 3.25902C171.946 3.14489 171.539 2.87741 171.143 2.61684C170.654 2.29569 170.183 1.98506 169.557 1.98506C168.56 2.04108 167.66 2.44195 166.74 2.8519C165.568 3.37425 164.362 3.91136 162.88 3.7686C161.51 2.03691 159.416 2.29294 157.348 2.54582C157.134 2.572 156.92 2.59814 156.708 2.62204C154.816 2.82334 152.946 2.68668 151.071 2.54974C148.199 2.34004 145.319 2.12971 142.347 3.13163C140.315 1.8159 138.438 2.51724 136.484 3.24838C135.41 3.64993 134.312 4.06047 133.151 4.1508C132.27 3.76865 131.262 3.3865 130.254 3.00435V3.00423C128.49 4.53299 126.475 4.66039 124.585 4.4056C124.07 4.57932 123.685 4.88465 123.3 5.18998C122.837 5.55638 122.375 5.92278 121.688 6.06175C120.297 5.32495 118.872 5.67989 117.374 6.05262C116.024 6.3888 114.616 6.73944 113.122 6.31655C112.934 6.58263 112.758 6.83736 112.589 7.08076C112.192 7.65311 111.838 8.16275 111.484 8.60968C109.786 7.71868 108.149 8.09942 106.372 8.51304C104.591 8.92739 102.668 9.37468 100.399 8.60968C100.234 8.50938 100.069 8.34767 99.8808 8.16368C99.3518 7.64658 98.6436 6.95352 97.2499 6.95352C94.1357 9.0908 90.7264 8.14903 87.2829 7.19773C86.8265 7.07165 86.3695 6.94541 85.9125 6.82613C85.6918 6.60295 85.4949 6.33987 85.2919 6.06884C84.6839 5.25693 84.0224 4.37371 82.5113 4.27821C82.1712 4.49316 81.824 4.72264 81.4678 4.95805C79.7126 6.11779 77.7394 7.4217 75.331 7.84531H74.8272C73.3155 6.06175 71.5519 5.93436 69.5364 6.82613C68.1507 7.33572 66.5131 7.20832 65.2534 6.31655C63.8841 5.56117 62.5148 5.67668 61.0238 5.80246L60.9705 5.80696C59.8917 5.94926 58.8303 6.14456 57.767 6.34022C55.9745 6.67006 54.1762 7.00097 52.2786 7.08093C50.1936 7.23154 48.2847 6.62541 46.3958 6.02561C45.0891 5.61071 43.7921 5.19886 42.4528 5.04258C41.4326 4.81328 40.3867 4.81614 39.3383 4.81901C38.0569 4.82251 36.7717 4.82602 35.5246 4.4056C34.9133 4.15836 34.4801 4.33097 34.0521 4.50146C33.5979 4.68238 33.1498 4.86093 32.5012 4.533H29.8558C29.0562 3.84873 28.2566 4.07571 27.4863 4.29436C26.679 4.5235 25.9041 4.74348 25.195 3.89602C24.5652 3.13164 23.6834 2.62205 22.8016 2.49465C18.7705 1.98507 14.7395 2.74945 10.8344 5.67957C9.53927 4.95915 8.57697 4.8111 7.62244 4.66424Z" fill="#CAD4BD"/>
</g>
<defs>
<clipPath id="clip0_1_170">
<rect width="422" height="378" fill="white"/>
</clipPath>
</defs>
</svg>
