<svg width="8" height="8" viewBox="0 0 8 8" fill="none" xmlns="http://www.w3.org/2000/svg">
<path d="M3.79883 0.227539C4.38151 0.227539 4.94954 0.377279 5.50293 0.676758C6.05632 0.972982 6.48763 1.39941 6.79688 1.95605C7.10938 2.50944 7.26562 3.08724 7.26562 3.68945C7.26562 4.28841 7.11263 4.86296 6.80664 5.41309C6.50065 5.96322 6.07259 6.39128 5.52246 6.69727C4.97233 7 4.39779 7.15137 3.79883 7.15137C3.19987 7.15137 2.62533 7 2.0752 6.69727C1.52832 6.39128 1.10189 5.96322 0.795898 5.41309C0.489909 4.86296 0.336914 4.28841 0.336914 3.68945C0.336914 3.08724 0.491536 2.50944 0.800781 1.95605C1.11328 1.39941 1.54622 0.972982 2.09961 0.676758C2.65299 0.377279 3.2194 0.227539 3.79883 0.227539ZM3.79883 0.525391C3.26823 0.525391 2.75065 0.662109 2.24609 0.935547C1.74154 1.20898 1.34766 1.59961 1.06445 2.10742C0.78125 2.61198 0.639648 3.13932 0.639648 3.68945C0.639648 4.23633 0.777995 4.76042 1.05469 5.26172C1.33464 5.76302 1.72526 6.15365 2.22656 6.43359C2.72786 6.71354 3.25195 6.85352 3.79883 6.85352C4.3457 6.85352 4.86979 6.71354 5.37109 6.43359C5.87565 6.15365 6.26628 5.76302 6.54297 5.26172C6.82292 4.76042 6.96289 4.23633 6.96289 3.68945C6.96289 3.13932 6.82129 2.61198 6.53809 2.10742C6.25488 1.59961 5.861 1.20898 5.35645 0.935547C4.85189 0.662109 4.33268 0.525391 3.79883 0.525391ZM1.88477 1.56055H3.76953C4.24154 1.56055 4.60124 1.66797 4.84863 1.88281C5.09603 2.0944 5.21973 2.35156 5.21973 2.6543C5.21973 2.90169 5.13509 3.11979 4.96582 3.30859C4.7998 3.49414 4.52311 3.63737 4.13574 3.73828L5.15625 5.19336C5.27995 5.36589 5.39062 5.4847 5.48828 5.5498C5.55013 5.58887 5.63639 5.61328 5.74707 5.62305V5.78418H4.84863L3.41309 3.80664H3.04199V5.31543C3.06152 5.42285 3.1071 5.50098 3.17871 5.5498C3.25358 5.59863 3.40007 5.62305 3.61816 5.62305V5.78418H1.82617V5.62305C1.98242 5.62305 2.0931 5.60514 2.1582 5.56934C2.22331 5.53027 2.27051 5.47493 2.2998 5.40332C2.32259 5.35124 2.33398 5.19987 2.33398 4.94922V2.39551C2.33398 2.15462 2.3291 2.01302 2.31934 1.9707C2.29655 1.89583 2.25423 1.83887 2.19238 1.7998C2.13379 1.75749 2.03125 1.73633 1.88477 1.73633V1.56055ZM3.04199 3.59668C3.42611 3.59668 3.70605 3.55924 3.88184 3.48438C4.06087 3.40951 4.19759 3.30534 4.29199 3.17188C4.38639 3.03516 4.43359 2.88053 4.43359 2.70801C4.43359 2.44434 4.34082 2.22298 4.15527 2.04395C3.97298 1.86491 3.73861 1.77539 3.45215 1.77539C3.32845 1.77539 3.19173 1.80143 3.04199 1.85352V3.59668Z" fill="#3E3E42"/>
</svg>
